<?xml version="1.0"?><svg id="Layer_2" data-name="Layer 2" xmlns="http://www.w3.org/2000/svg" viewBox="0 0 47.02 165.31">
  <defs>

  </defs>
  <g id="Layer_1-2" data-name="Layer 1">
    <path fill="#fcbc05" d="M10.45,70.56c-3.32-7.47-1.11-15.32-.57-22.37l.93-12.15.99-13.01.84-11.24c.37-4.88,2.81-10.47,8.65-11.47,6.81-1.16,14.35.83,20.3,4,11.2,5.96,2.62,22.56-3.7,37.55l-12.9,30.62c-2.17,3.29-12.76,2.07-14.54-1.94Z"></path>
    <path fill="#fcbc05" d="M10.05,80.5c7.02-1.52,13.58,3.37,14.73,9.3,1.29,6.67-3.06,13.7-9.53,14.99s-12.86-2.74-14.74-8.78c-2.01-6.46,1.87-13.85,9.53-15.51Z"></path>
    <path fill="#fcbc05" d="M17.01,135.2l-11.74-.61c-2.5-.13-3.31-6.26-1.51-7.75l24.19-6.18c3.13-.8,2.9,5.13,3.18,7.15.37,2.71,2.11,6-.96,7.49-3.8,1.84-8.97.11-13.15-.11Z"></path>
    <path fill="#fcbc05" d="M20.03,165.31l-16.57-11.69c-1.69-1.19-3.27-2.26-3.31-4.12-.04-1.62,1.62-5.17,3.71-4.41l22.31,8.09c-.34,4.52-2.26,8.52-6.14,12.13Z"></path>
  </g>
</svg>