<?xml version="1.0"?><svg id="Layer_1" data-name="Layer 1" xmlns="http://www.w3.org/2000/svg" viewBox="0 0 105 105">
  <defs>

  </defs>
  <g>
    <path class="cls-2" d="M37.12,90.57s-.21-.04-.44-.07c-.48-.07-.46-.05-.58-.38-.05-.13-.17-.47-.27-.73s-.19-.5-.19-.52c-.01-.02-.09-.23-.18-.49-.34-.94-.5-1.38-.53-1.45-.02-.04-.1-.26-.18-.5-.08-.24-.17-.46-.18-.5-.02-.04-.1-.25-.18-.48-.08-.23-.24-.66-.35-.95-.11-.3-.27-.75-.36-.99-.09-.25-.25-.69-.36-.99-.11-.3-.27-.75-.36-.99-.09-.24-.25-.69-.36-.99-.24-.66-.46-1.25-.46-1.27,0,0-.54-.01-1.21-.01h-1.21l-.11.29c-.06.16-.19.51-.29.78-.1.27-.26.71-.36.97-.17.46-.34.92-.73,1.96-.1.27-.24.66-.32.86-.16.44-.17.46-.41,1.1-.11.28-.26.71-.35.96-.09.24-.17.48-.19.51-.02.04-.1.27-.19.51-.09.25-.24.67-.35.94-.1.27-.26.7-.35.96-.09.25-.19.5-.21.56-.03.05-.09.24-.16.42-.08.25-.13.33-.18.34-.04,0-.24.04-.45.07-.21.03-.39.06-.4.07-.01,0-.03.34-.03.74v.72h4.22v-1.48l-.37-.07c-.21-.04-.4-.07-.43-.07-.08,0-.08.03.24-.94l.29-.88h4.6l.29.87c.32.95.32.95.24.95-.03,0-.22.03-.43.07l-.37.07v1.48h4.22v-.72c0-.4-.01-.73-.03-.74ZM30.91,86.73c-.93,0-1.68-.01-1.68-.03,0-.03.85-2.49,1.1-3.21.06-.17.21-.61.34-.97.17-.49.23-.64.26-.6.02.03.19.51.37,1.07.19.56.36,1.04.37,1.08.02.04.1.28.2.55.09.26.29.84.44,1.29l.28.82h-1.68Z"></path>
    <path class="cls-2" d="M50.48,90.56c-.07-.02-.26-.05-.44-.07-.37-.05-.38-.05-.45-.27-.03-.09-.07-.22-.1-.27-.03-.05-.11-.29-.2-.53-.08-.23-.16-.46-.18-.5-.02-.04-.1-.25-.18-.48-.15-.41-.36-.99-.73-1.98-.1-.28-.25-.69-.33-.91-.08-.22-.24-.66-.37-.99-.12-.33-.28-.75-.34-.94-.07-.19-.16-.45-.21-.58-.05-.13-.14-.38-.2-.56-.07-.18-.14-.37-.16-.43-.03-.06-.11-.28-.18-.5-.08-.22-.16-.44-.18-.5-.02-.06-.13-.33-.23-.61-.1-.28-.24-.66-.31-.85l-.12-.34h-2.42l-.1.29c-.05.16-.2.55-.32.86-.12.32-.28.77-.36.99-.08.23-.17.46-.19.51-.02.06-.1.27-.18.48-.07.21-.23.64-.35.96-.12.32-.28.76-.36.99-.08.23-.16.44-.18.48-.02.04-.11.27-.2.53-.09.25-.25.68-.35.94-.1.26-.25.69-.34.94-.09.25-.18.49-.2.53-.02.04-.11.27-.2.53-.09.25-.25.68-.35.94-.09.26-.23.63-.29.81-.15.42-.12.39-.6.46-.22.03-.42.06-.44.07-.02.01-.03.31-.03.74v.72h4.22v-1.48l-.37-.07c-.21-.04-.4-.07-.43-.07-.07,0-.07-.04.26-1.02l.27-.81h4.61l.29.89c.16.49.29.9.29.91,0,0-.19.05-.41.09-.23.04-.43.08-.45.09-.02,0-.03.34-.03.74v.72h4.25v-1.45l-.12-.03ZM44.34,86.73h-1.68l.13-.39c.07-.21.14-.42.16-.45.02-.04.1-.27.18-.53.08-.25.17-.49.18-.53.02-.04.19-.53.38-1.09.19-.56.41-1.21.49-1.43.08-.23.14-.42.14-.43,0-.08.16.35.79,2.19.89,2.58.89,2.59.89,2.63,0,.01-.75.03-1.68.03Z"></path>
    <path class="cls-2" d="M59.32,79.45c-.66-.18-.75-.18-4.32-.18h-3.31v1.47l.4.07c.22.04.53.1.68.13l.27.05v9.31l-.6.11c-.33.06-.64.12-.68.14-.07.03-.07.03-.07.76v.73h5.15v-1.48l-.45-.08c-.25-.05-.55-.1-.68-.12l-.22-.04v-2.98l1.49-.02c.92,0,1.59-.03,1.74-.06,2.33-.37,3.65-1.8,3.65-3.96,0-1.97-1.06-3.32-3.04-3.85ZM58.67,85.29c-.37.13-.59.15-1.92.15h-1.26s0-4.33,0-4.33l1.34.02c1.02.01,1.39.03,1.54.06,1.97.48,2.18,3.43.29,4.1Z"></path>
    <path class="cls-2" d="M63.44,80.01v.73l.39.07c.21.04.52.1.69.13l.3.06.02,9.3-.62.11c-.34.06-.65.12-.69.14-.07.03-.07.03-.07.76v.73h5.15v-1.48l-.29-.05c-.16-.03-.49-.09-.74-.13l-.46-.07v-1.43c0-.79-.03-2.62-.07-4.07-.08-3.07-.09-2.88.09-2.43.21.53.8,1.98.85,2.09.03.05.19.45.36.89.18.44.34.84.36.89.02.05.19.46.36.89.18.44.35.85.38.92.03.07.11.27.18.44.07.17.14.36.17.41.03.06.11.26.18.45.08.19.16.41.2.48.03.07.11.27.18.44.07.17.14.35.17.41.03.06.11.25.18.43s.16.41.21.5l.08.17h.9c.58,0,.9-.01.9-.03,0-.03.6-1.57.66-1.7.03-.07.24-.59.53-1.35.09-.24.19-.47.21-.53.03-.06.11-.27.19-.48.08-.21.24-.61.35-.89.11-.28.26-.67.34-.86.07-.19.15-.39.18-.45.02-.05.11-.28.2-.5s.17-.44.2-.49c.02-.06.12-.28.2-.5.09-.22.24-.6.34-.86s.24-.62.32-.82l.14-.36v.78c.02.43.01,2.3,0,4.15l-.02,3.37-.63.11c-.35.06-.67.12-.71.14-.07.03-.07.03-.07.76v.73h2.58s2.58-.02,2.58-.02v-.71s.02-.72.02-.72l-.09-.03s-.36-.08-.69-.14l-.6-.11v-9.31l.29-.06c.16-.03.47-.09.68-.13l.4-.08v-.73s.02-.73.02-.73h-2.47s-2.47,0-2.47,0l-.09.24c-.05.13-.17.45-.27.7-.26.68-.57,1.46-.75,1.93-.09.23-.25.65-.36.94-.34.89-.51,1.33-.69,1.8-.09.24-.18.48-.2.51-.02.04-.11.26-.19.5-.32.87-.5,1.32-.53,1.38-.02.04-.11.26-.2.51-.21.55-.22.57-.25.48-.07-.19-.62-1.57-.68-1.69-.03-.08-.06-.15-.06-.16,0-.03-.56-1.43-.65-1.63-.04-.09-.08-.18-.08-.19,0,0-.36-.93-.81-2.04-.44-1.11-.81-2.03-.81-2.04,0,0-.04-.1-.08-.19s-.13-.3-.18-.45-.14-.35-.17-.44l-.07-.16h-4.87v.74h0Z"></path>
  </g>
  <g>
    <path class="cls-2" d="M53.03,20.38c-.76.33-1.09,1.28-1.09,3.18s-.3,2.02-3.34,1.79c-3.38-.26-4.09-.27-4.71-.07-1.52.51-1.45,1.49.22,2.81,2.5,1.98,2.48,2.18-.24,2.62-3.79.6-6.1,1.82-7.16,3.78-1.71,3.15,1.46,6.51,4.61,4.89,1.33-.69,1.73-.97,3.51-2.42,4.48-3.65,11.91-5.43,17.67-4.25,7.56,1.56,10.08,5.66,6.15,10.01-4.07,4.49-5.13,7.88-3.48,11.13,2.08,4.09,7.5,4.56,9.4.81.55-1.08.6-3.44.11-4.39-.05-.1-.24-.49-.41-.87-.17-.37-.53-1-.8-1.39-1.28-1.87-1.64-3.1-1.22-4.14.69-1.71,2.63-2.47,5.49-2.16,1.44.16,1.44.16,1.1-.54-.93-1.91-2.89-3.86-5.06-5.01-.49-.26-.91-.49-.93-.5-.01-.01.13-.37.32-.79,1.38-3.05.07-7.24-3.35-10.69-2.41-2.43-3.8-2.57-5.76-.56-1.29,1.31-1.97,1.56-3.33,1.21-1.22-.31-1.54-.53-4.29-2.94-1.64-1.43-2.62-1.87-3.41-1.53M62.4,36.13c-.82.29-1.23.89-1.23,1.8,0,1.56,1.72,2.41,2.99,1.48,1.78-1.29.32-4.02-1.76-3.28"></path>
    <path class="cls-1" d="M51.15,11.4c-16.3,1.17-28.95,14.8-28.96,31.19,0,9.18,3.81,17.43,11.02,23.82.68.61,2.69,2.09,3.33,2.46.31.18.74.45.96.6,2.47,1.68,7.5,3.45,11.61,4.09.92.15,4.54.35,4.74.27.08-.03-.58-.78-1.55-1.75-.93-.93-1.94-2.03-2.24-2.45-.3-.41-.62-.84-.71-.95-3.14-3.82-5.64-12.24-5.14-17.21.24-2.39.89-5.57,1.28-6.27.06-.11.27-.61.46-1.11,1.41-3.63,4.39-7.29,7.32-8.99,1.34-.78-.76-.15-2.9.87-3.03,1.44-6.47,4.3-8.05,6.68-.32.48-.66.97-.76,1.09-.51.61-1.6,2.83-2.24,4.56-1.71,4.6-2.02,10.05-.86,14.97.13.53.23.99.23,1.02,0,.03-.15-.06-.34-.21-.19-.15-.58-.45-.88-.67-.3-.22-.6-.45-.67-.52-.07-.06-.41-.36-.76-.65-5-4.21-8.46-10.52-9.41-17.18-.38-2.65-.36-4.57.08-7.55.73-4.98,3.07-9.97,6.49-13.84.45-.51.87-.99.93-1.07.12-.15,1.9-1.77,2.61-2.38,6.2-5.31,16.34-8.03,24.61-6.61,1.92.33,4.47.92,5.08,1.18.19.08.94.36,1.67.64.73.27,1.44.56,1.59.65.14.09.4.21.58.28l.32.11-.31-.28c-1.68-1.51-7.75-3.85-11.51-4.45-2.62-.42-5.02-.53-7.6-.34M59.5,33.71c-5.04.8-8.99,3.95-11.5,9.17-3.2,6.65-2.54,15.12,1.71,21.99.79,1.29.83,1.34,1.76,2.54,1.98,2.57,6.34,6.16,7.26,6,4.08-.71,8.44-2.37,11.48-4.39l.79-.52-.56-.07c-3.17-.38-4.95-.87-7.37-2.02-2.61-1.24-5.08-3.15-6.87-5.33-.28-.34-.54-.64-.58-.67-.23-.19-1.61-2.42-2.1-3.4-4.76-9.59-1.38-20.56,7.15-23.13.46-.14.83-.27.83-.3,0-.09-1.1-.02-2.02.12"></path>
  </g>
</svg>